<?xml version="1.0" encoding="UTF-8"?>
<svg width="43px" height="43px" viewBox="0 0 43 43" version="1.1" xmlns="http://www.w3.org/2000/svg" xmlns:xlink="http://www.w3.org/1999/xlink">
    <!-- Generator: Sketch 53.1 (72631) - https://sketchapp.com -->
    <title>facebook (2)</title>
    <desc>Created with Sketch.</desc>
    <g id="Page-1" stroke="none" stroke-width="1" fill="none" fill-rule="evenodd">
        <g id="Artboard-Copy-12" transform="translate(-374.000000, -2441.000000)" fill="#FFFFFF" fill-rule="nonzero">
            <g id="Footer" transform="translate(-5.000000, 2256.000000)">
                <g id="facebook-(2)" transform="translate(379.000000, 185.000000)">
                    <path d="M43,21.5 C43,9.62460938 33.3753906,0 21.5,0 C9.62460938,0 0,9.62460938 0,21.5 C0,33.3753906 9.62460938,43 21.5,43 C21.6259766,43 21.7519531,43 21.8779297,42.9916016 L21.8779297,26.2619141 L17.2587891,26.2619141 L17.2587891,20.8785156 L21.8779297,20.8785156 L21.8779297,16.9144531 C21.8779297,12.3205078 24.6830078,9.81777344 28.7814453,9.81777344 C30.7466797,9.81777344 32.4347656,9.96054687 32.921875,10.0277344 L32.921875,14.8316406 L30.1,14.8316406 C27.8744141,14.8316406 27.4376953,15.8898437 27.4376953,17.4435547 L27.4376953,20.8701172 L32.7707031,20.8701172 L32.0736328,26.2535156 L27.4376953,26.2535156 L27.4376953,42.1685547 C36.4240234,39.5902344 43,31.3177734 43,21.5 Z" id="Path"></path>
                </g>
            </g>
        </g>
    </g>
</svg>