<?xml version="1.0" encoding="UTF-8"?>
<svg width="43px" height="43px" viewBox="0 0 43 43" version="1.1" xmlns="http://www.w3.org/2000/svg" xmlns:xlink="http://www.w3.org/1999/xlink">
    <!-- Generator: Sketch 53.1 (72631) - https://sketchapp.com -->
    <title>instagram (2)</title>
    <desc>Created with Sketch.</desc>
    <g id="Page-1" stroke="none" stroke-width="1" fill="none" fill-rule="evenodd">
        <g id="Artboard-Copy-12" transform="translate(-433.000000, -2441.000000)" fill="#FFFFFF" fill-rule="nonzero">
            <g id="Footer" transform="translate(-5.000000, 2256.000000)">
                <g id="instagram-(2)" transform="translate(438.000000, 185.000000)">
                    <path d="M25.6152344,21.5 C25.6152344,23.7728271 23.7728271,25.6152344 21.5,25.6152344 C19.2271729,25.6152344 17.3847656,23.7728271 17.3847656,21.5 C17.3847656,19.2271729 19.2271729,17.3847656 21.5,17.3847656 C23.7728271,17.3847656 25.6152344,19.2271729 25.6152344,21.5 Z" id="Path"></path>
                    <path d="M31.1240845,14.2189484 C30.9262619,13.6828918 30.6106644,13.1976852 30.2005844,12.7994156 C29.8023148,12.3893356 29.3174362,12.0737381 28.7810516,11.8759155 C28.3460388,11.7069626 27.6925354,11.5058594 26.4888687,11.4510727 C25.1867829,11.3916931 24.7963867,11.3788986 21.5,11.3788986 C18.2032852,11.3788986 17.8128891,11.3913651 16.5111313,11.4507446 C15.3074646,11.5058594 14.6536331,11.7069626 14.2189484,11.8759155 C13.6825638,12.0737381 13.1973572,12.3893356 12.7994156,12.7994156 C12.3893356,13.1976852 12.0737381,13.6825638 11.8755875,14.2189484 C11.7066345,14.6539612 11.5055313,15.3077926 11.4507446,16.5114593 C11.3913651,17.8132171 11.3785706,18.2036133 11.3785706,21.500328 C11.3785706,24.7967148 11.3913651,25.1871109 11.4507446,26.4891968 C11.5055313,27.6928634 11.7066345,28.3463669 11.8755875,28.7813797 C12.0737381,29.3177643 12.3890076,29.8026428 12.7990876,30.2009124 C13.1973572,30.6109924 13.6822357,30.92659 14.2186203,31.1244125 C14.6536331,31.2936935 15.3074646,31.4947967 16.5111313,31.5495834 C17.8128891,31.6089631 18.2029572,31.6214294 21.499672,31.6214294 C24.7967148,31.6214294 25.1871109,31.6089631 26.4885407,31.5495834 C27.6922074,31.4947967 28.3460388,31.2936935 28.7810516,31.1244125 C29.8577576,30.7090836 30.7087555,29.8580856 31.1240845,28.7813797 C31.2930374,28.3463669 31.4941406,27.6928634 31.5492554,26.4891968 C31.6086349,25.1871109 31.6211014,24.7967148 31.6211014,21.500328 C31.6211014,18.2036133 31.6086349,17.8132171 31.5492554,16.5114593 C31.4944687,15.3077926 31.2933655,14.6539612 31.1240845,14.2189484 L31.1240845,14.2189484 Z M21.5,27.8395081 C17.9985733,27.8395081 15.1601639,25.0014267 15.1601639,21.5 C15.1601639,17.9985733 17.9985733,15.1604919 21.5,15.1604919 C25.0010986,15.1604919 27.8395081,17.9985733 27.8395081,21.5 C27.8395081,25.0014267 25.0010986,27.8395081 21.5,27.8395081 Z M28.0901489,16.3913879 C27.2719574,16.3913879 26.6086121,15.7280426 26.6086121,14.9098511 C26.6086121,14.0916595 27.2719574,13.4283142 28.0901489,13.4283142 C28.9083405,13.4283142 29.5716858,14.0916595 29.5716858,14.9098511 C29.5713577,15.7280426 28.9083405,16.3913879 28.0901489,16.3913879 Z" id="Shape"></path>
                    <path d="M21.5,0 C9.6276932,0 0,9.6276932 0,21.5 C0,33.3723068 9.6276932,43 21.5,43 C33.3723068,43 43,33.3723068 43,21.5 C43,9.6276932 33.3723068,0 21.5,0 Z M33.7712326,26.5899124 C33.711525,27.9041366 33.5025482,28.8013916 33.1974487,29.5867767 C32.5560837,31.2451401 31.2451401,32.5560837 29.5867767,33.1974487 C28.8017196,33.5025482 27.9041366,33.7111969 26.5902405,33.7712326 C25.2737198,33.8312683 24.8531418,33.8457031 21.500328,33.8457031 C18.1471863,33.8457031 17.7269364,33.8312683 16.4100876,33.7712326 C15.0961914,33.7111969 14.1986084,33.5025482 13.4135514,33.1974487 C12.5894547,32.8874283 11.8434372,32.4015656 11.2266769,31.7733231 C10.5987625,31.1568909 10.1128997,30.4105453 9.80287931,29.5867767 C9.49777987,28.8017196 9.28880306,27.9041366 9.22909546,26.5902405 C9.16840365,25.2733918 9.15429688,24.8528137 9.15429688,21.5 C9.15429688,18.1471863 9.16840365,17.7266082 9.22876742,16.4100876 C9.28847502,15.0958634 9.4971237,14.1986084 9.80222323,13.4132233 C10.1122437,12.5894547 10.5984344,11.8431091 11.2266769,11.2266769 C11.8431091,10.5984344 12.5894547,10.1125717 13.4132233,9.80255127 C14.1986084,9.49745182 15.0958634,9.28880306 16.4100876,9.22876742 C17.7266082,9.16873169 18.1471863,9.15429688 21.5,9.15429688 C24.8528137,9.15429688 25.2733918,9.16873169 26.5899124,9.22909546 C27.9041366,9.28880306 28.8013916,9.49745182 29.5867767,9.80222323 C30.4105453,10.1122437 31.1568909,10.5984344 31.7736511,11.2266769 C32.4015656,11.8434372 32.8877563,12.5894547 33.1974487,13.4132233 C33.5028763,14.1986084 33.711525,15.0958634 33.7715607,16.4100876 C33.8315964,17.7266082 33.8457031,18.1471863 33.8457031,21.5 C33.8457031,24.8528137 33.8315964,25.2733918 33.7712326,26.5899124 L33.7712326,26.5899124 Z" id="Shape"></path>
                </g>
            </g>
        </g>
    </g>
</svg>