<?xml version="1.0" encoding="UTF-8"?>
<svg width="43px" height="43px" viewBox="0 0 43 43" version="1.1" xmlns="http://www.w3.org/2000/svg" xmlns:xlink="http://www.w3.org/1999/xlink">
    <!-- Generator: Sketch 53.1 (72631) - https://sketchapp.com -->
    <title>linkedin (1)</title>
    <desc>Created with Sketch.</desc>
    <g id="Page-1" stroke="none" stroke-width="1" fill="none" fill-rule="evenodd">
        <g id="Artboard-Copy-12" transform="translate(-609.000000, -2441.000000)" fill="#FFFFFF" fill-rule="nonzero">
            <g id="linkedin-(1)" transform="translate(609.000000, 2441.000000)">
                <path d="M21.5,0 C9.6276932,0 0,9.6276932 0,21.5 C0,33.3723068 9.6276932,43 21.5,43 C33.3723068,43 43,33.3723068 43,21.5 C43,9.6276932 33.3723068,0 21.5,0 Z M15.2523499,32.5019531 L10.0161209,32.5019531 L10.0161209,16.7486496 L15.2523499,16.7486496 L15.2523499,32.5019531 Z M12.6343994,14.5975342 L12.6002808,14.5975342 C10.8431702,14.5975342 9.70675659,13.3879623 9.70675659,11.8762436 C9.70675659,10.3304062 10.877945,9.15429688 12.6691742,9.15429688 C14.4604035,9.15429688 15.5626984,10.3304062 15.5968171,11.8762436 C15.5968171,13.3879623 14.4604035,14.5975342 12.6343994,14.5975342 Z M34.1330872,32.5019531 L28.8975143,32.5019531 L28.8975143,24.074318 C28.8975143,21.956337 28.1393586,20.5118713 26.2447891,20.5118713 C24.7983551,20.5118713 23.9368591,21.4862214 23.5582733,22.4267807 C23.4198303,22.7633743 23.3860397,23.233818 23.3860397,23.7045898 L23.3860397,32.5019531 L18.1501388,32.5019531 C18.1501388,32.5019531 18.2187043,18.2265778 18.1501388,16.7486496 L23.3860397,16.7486496 L23.3860397,18.9791565 C24.0818634,17.9057312 25.3268661,16.3789216 28.1049118,16.3789216 C31.5499115,16.3789216 34.1330872,18.6304245 34.1330872,23.4690399 L34.1330872,32.5019531 Z" id="Shape"></path>
            </g>
        </g>
    </g>
</svg>