<?xml version="1.0" encoding="UTF-8"?>
<svg width="143px" height="42px" viewBox="0 0 143 42" version="1.1" xmlns="http://www.w3.org/2000/svg" xmlns:xlink="http://www.w3.org/1999/xlink">
    <!-- Generator: Sketch 53.1 (72631) - https://sketchapp.com -->
    <title>Blue Logo</title>
    <desc>Created with Sketch.</desc>
    <g id="Page-1" stroke="none" stroke-width="1" fill="none" fill-rule="evenodd">
        <g id="Artboard-Copy-13" transform="translate(-15.000000, -9.000000)" fill="#1D3382">
            <g id="Header" transform="translate(15.000000, 9.000000)">
                <g id="Blue-Logo">
                    <path d="M26.49,17.84 C28.3300092,17.84 29.8999935,18.0199982 31.2,18.38 C32.5000065,18.7400018 33.15,19.4799944 33.15,20.6 C33.15,21.0800024 33.0200013,21.5899973 32.76,22.13 C32.4999987,22.6700027 32.2500012,23.139998 32.01,23.54 C31.6499982,24.0600026 31.3800009,25.0999922 31.2,26.66 C31.0199991,28.2200078 30.8700006,29.8399916 30.75,31.52 C30.6699996,32.4000044 30.2800035,32.9599988 29.58,33.2 C28.8799965,33.4400012 28.130004,33.4800008 27.33,33.32 C26.529996,33.1599992 25.9900014,32.9000018 25.71,32.54 C25.3499982,32.139998 24.8600031,31.8800006 24.24,31.76 C23.6199969,31.6399994 23.0500026,31.5899999 22.53,31.61 C22.0099974,31.6300001 21.6900006,31.6599998 21.57,31.7 C20.969997,31.900001 20.2900038,32.0599994 19.53,32.18 C18.7699962,32.3000006 17.8700052,32.36 16.83,32.36 C13.829985,32.36 11.1000123,31.6800068 8.64,30.32 C6.1799877,28.9599932 4.2100074,27.1400114 2.73,24.86 C1.2499926,22.5799886 0.51,20.0600138 0.51,17.3 C0.51,15.2199896 0.9299958,13.2700091 1.77,11.45 C2.6100042,9.6299909 3.7799925,8.0300069 5.28,6.65 C6.7800075,5.2699931 8.5199901,4.1900039 10.5,3.41 C12.4800099,2.6299961 14.5899888,2.24 16.83,2.24 C19.630014,2.24 22.2199881,2.8199942 24.6,3.98 C26.9800119,5.1400058 28.8899928,6.71999 30.33,8.72 C31.2100044,9.920006 31.550001,11.019995 31.35,12.02 C31.149999,13.020005 30.6300042,13.8599966 29.79,14.54 C28.9499958,15.2200034 27.9600057,15.6899987 26.82,15.95 C25.6799943,16.2100013 24.5800053,16.2000014 23.52,15.92 C22.4599947,15.6399986 21.6100032,15.0500045 20.97,14.15 C20.3299968,13.2499955 20.109999,11.9800082 20.31,10.34 C20.4300006,9.339995 20.290002,8.4100043 19.89,7.55 C19.489998,6.6899957 18.9400035,6.0300023 18.24,5.57 C17.5399965,5.1099977 16.8100038,4.979999 16.05,5.18 C15.1699956,5.4200012 14.4500028,5.9999954 13.89,6.92 C13.3299972,7.8400046 12.9100014,8.9499935 12.63,10.25 C12.3499986,11.5500065 12.21,12.899993 12.21,14.3 C12.21,15.700007 12.3299988,17.0199938 12.57,18.26 C12.8900016,19.9800086 13.4399961,21.6799916 14.22,23.36 C15.0000039,25.0400084 15.889995,26.4299945 16.89,27.53 C17.890005,28.6300055 18.8499954,29.18 19.77,29.18 C20.3300028,29.18 20.6999991,28.8200036 20.88,28.1 C21.0600009,27.3799964 21.0900006,26.5700045 20.97,25.67 C20.8499994,24.7699955 20.6100018,24.0600026 20.25,23.54 C20.0099988,23.139998 19.7500014,22.6700027 19.47,22.13 C19.1899986,21.5899973 19.05,21.0800024 19.05,20.6 C19.05,19.4799944 19.6999935,18.7400018 21,18.38 C22.3000065,18.0199982 23.8299912,17.84 25.59,17.84 L26.49,17.84 Z M68.13,28.64 C68.4100014,28.9200014 68.6699988,29.159999 68.91,29.36 C69.1500012,29.560001 69.2500002,29.859998 69.21,30.26 C69.0899994,31.1800046 68.5900044,31.7599988 67.71,32 C66.8299956,32.2400012 65.9500044,32.36 65.07,32.36 C64.7899986,32.36 64.2300042,32.3000006 63.39,32.18 C62.5499958,32.0599994 61.6800045,31.9500005 60.78,31.85 C59.8799955,31.7499995 59.1700026,31.7 58.65,31.7 C58.1299974,31.7 57.6200025,31.7499995 57.12,31.85 C56.6199975,31.9500005 55.9800039,32.0599994 55.2,32.18 C54.4199961,32.3000006 53.3900064,32.36 52.11,32.36 C50.6299926,32.36 49.2000069,31.8900047 47.82,30.95 C46.4399931,30.0099953 45.3100044,28.7500079 44.43,27.17 C43.5499956,25.5899921 43.11,23.8600094 43.11,21.98 C43.11,20.0599904 43.509996,18.3100079 44.31,16.73 C45.110004,15.1499921 46.1899932,13.8900047 47.55,12.95 C48.9100068,12.0099953 50.4299916,11.54 52.11,11.54 C53.1500052,11.54 54.1299954,11.7299981 55.05,12.11 C55.9700046,12.4900019 56.8099962,13.0199966 57.57,13.7 C57.5299998,13.0599968 57.4500006,12.5000024 57.33,12.02 C57.2099994,11.5399976 56.9700018,11.0800022 56.61,10.64 C56.3299986,10.239998 56.0300016,9.8900015 55.71,9.59 C55.3899984,9.2899985 55.2499998,8.9000024 55.29,8.42 C55.3700004,7.819997 55.7399967,7.2800024 56.4,6.8 C57.0600033,6.3199976 57.8099958,5.880002 58.65,5.48 C59.4900042,5.079998 60.2699964,4.7000018 60.99,4.34 C61.5100026,4.0599986 62.1799959,3.720002 63,3.32 C63.8200041,2.919998 64.6199961,2.6100011 65.4,2.39 C66.1800039,2.1699989 66.7999977,2.1799988 67.26,2.42 C67.7200023,2.6600012 67.850001,3.2599952 67.65,4.22 C67.6099998,4.5800018 67.5200007,5.659991 67.38,7.46 C67.2399993,9.260009 67.0900008,11.3399882 66.93,13.7 C66.8899998,14.4600038 66.8600001,15.3099953 66.84,16.25 C66.8199999,17.1900047 66.81,18.1799948 66.81,19.22 C66.81,20.3800058 66.8299998,21.6099935 66.87,22.91 C66.9100002,24.2100065 67.0199991,25.3899947 67.2,26.45 C67.3800009,27.5100053 67.6899978,28.239998 68.13,28.64 Z M55.29,29.54 C55.9700034,29.8600016 56.5399977,29.4600056 57,28.34 C57.4600023,27.2199944 57.69,25.0200164 57.69,21.74 C57.69,19.6999898 57.6100008,18.2000048 57.45,17.24 C57.2899992,16.2799952 56.9300028,15.5600024 56.37,15.08 C55.6099962,14.4399968 54.9200031,14.2599986 54.3,14.54 C53.6799969,14.8200014 53.1500022,15.4299953 52.71,16.37 C52.2699978,17.3100047 51.9700008,18.4199936 51.81,19.7 C51.6499992,20.9800064 51.6399993,22.2799934 51.78,23.6 C51.9200007,24.9200066 52.2799971,26.1099947 52.86,27.17 C53.4400029,28.2300053 54.2499948,29.0199974 55.29,29.54 Z M93.27,14.24 C93.670002,14.7600026 93.7900008,15.3799964 93.63,16.1 C93.4699992,16.8200036 93.1400025,17.5199966 92.64,18.2 C92.1399975,18.8800034 91.5400035,19.4099981 90.84,19.79 C90.1399965,20.1700019 89.4200037,20.2900007 88.68,20.15 C87.9399963,20.0099993 87.2500032,19.4800046 86.61,18.56 C86.1299976,17.9199968 85.6200027,17.2900031 85.08,16.67 C84.5399973,16.0499969 83.870004,15.74 83.07,15.74 C82.7899986,15.74 82.4400021,15.8899985 82.02,16.19 C81.5999979,16.4900015 81.3500004,17.1599948 81.27,18.2 C81.1499994,19.4800064 81.09,20.819993 81.09,22.22 C81.09,23.620007 81.189999,24.9099941 81.39,26.09 C81.590001,27.2700059 81.989997,28.159997 82.59,28.76 C82.8700014,29.0800016 83.1499986,29.3199992 83.43,29.48 C83.7100014,29.6400008 83.8100004,29.8999982 83.73,30.26 C83.6499996,30.860003 83.1800043,31.3099985 82.32,31.61 C81.4599957,31.9100015 80.4800055,32.1099995 79.38,32.21 C78.2799945,32.3100005 77.330004,32.36 76.53,32.36 C75.729996,32.36 74.8000053,32.3100005 73.74,32.21 C72.6799947,32.1099995 71.7400041,31.9100015 70.92,31.61 C70.0999959,31.3099985 69.6500004,30.860003 69.57,30.26 C69.4899996,29.859998 69.5799987,29.560001 69.84,29.36 C70.1000013,29.159999 70.3699986,28.9200014 70.65,28.64 C70.9700016,28.3599986 71.2199991,27.8300039 71.4,27.05 C71.5800009,26.2699961 71.6899998,25.4000048 71.73,24.44 C71.7700002,23.4799952 71.7200007,22.5800042 71.58,21.74 C71.4399993,20.8999958 71.2100016,20.280002 70.89,19.88 C70.5699984,19.479998 70.2500016,19.1300015 69.93,18.83 C69.6099984,18.5299985 69.4899996,18.1600022 69.57,17.72 C69.6500004,17.119997 69.9999969,16.5700025 70.62,16.07 C71.2400031,15.5699975 71.9599959,15.120002 72.78,14.72 C73.6000041,14.319998 74.3499966,13.9400018 75.03,13.58 C75.5500026,13.3399988 76.2399957,13.020002 77.1,12.62 C77.9600043,12.219998 78.7999959,11.9100011 79.62,11.69 C80.4400041,11.4699989 81.0899976,11.4699989 81.57,11.69 C82.0500024,11.9100011 82.1700012,12.4999952 81.93,13.46 C81.93,13.5400004 81.9200001,13.6499993 81.9,13.79 C81.8799999,13.9300007 81.8500002,14.0799992 81.81,14.24 C82.4900034,13.439996 83.3399949,12.7900025 84.36,12.29 C85.3800051,11.7899975 86.4099948,11.54 87.45,11.54 C88.9300074,11.54 90.1499952,11.8299971 91.11,12.41 C92.0700048,12.9900029 92.7899976,13.5999968 93.27,14.24 Z M105.15,11.54 C107.23001,11.54 109.109992,12.0099953 110.79,12.95 C112.470008,13.8900047 113.819995,15.1499921 114.84,16.73 C115.860005,18.3100079 116.37,20.0599904 116.37,21.98 C116.37,23.9000096 115.860005,25.6499921 114.84,27.23 C113.819995,28.8100079 112.470008,30.0599954 110.79,30.98 C109.109992,31.9000046 107.23001,32.36 105.15,32.36 C103.06999,32.36 101.190008,31.9000046 99.51,30.98 C97.8299916,30.0599954 96.490005,28.8100079 95.49,27.23 C94.489995,25.6499921 93.99,23.9000096 93.99,21.98 C93.99,20.0599904 94.489995,18.3100079 95.49,16.73 C96.490005,15.1499921 97.8299916,13.8900047 99.51,12.95 C101.190008,12.0099953 103.06999,11.54 105.15,11.54 Z M105.15,30.2 C105.830003,30.2 106.419998,29.400008 106.92,27.8 C107.420003,26.199992 107.67,24.300011 107.67,22.1 C107.67,19.899989 107.420003,18.0100079 106.92,16.43 C106.419998,14.8499921 105.830003,14.06 105.15,14.06 C104.469997,14.06 103.890002,14.8499921 103.41,16.43 C102.929998,18.0100079 102.69,19.899989 102.69,22.1 C102.69,24.300011 102.929998,26.199992 103.41,27.8 C103.890002,29.400008 104.469997,30.2 105.15,30.2 Z M134.01,11.54 C135.650008,11.54 137.149993,12.0099953 138.51,12.95 C139.870007,13.8900047 140.949996,15.1499921 141.75,16.73 C142.550004,18.3100079 142.95,20.0599904 142.95,21.98 C142.95,23.8600094 142.500004,25.5899921 141.6,27.17 C140.699995,28.7500079 139.510007,30.0099953 138.03,30.95 C136.549993,31.8900047 134.990008,32.36 133.35,32.36 C131.869993,32.36 130.750004,32.2300013 129.99,31.97 C129.229996,31.7099987 128.750001,31.5000008 128.55,31.34 C128.63,32.940008 128.779999,34.339994 129,35.54 C129.220001,36.740006 129.549998,37.5799976 129.99,38.06 C130.270001,38.3400014 130.549999,38.5599992 130.83,38.72 C131.110001,38.8800008 131.21,39.159998 131.13,39.56 C131.05,40.160003 130.580004,40.6099985 129.72,40.91 C128.859996,41.2100015 127.880006,41.4099995 126.78,41.51 C125.679995,41.6100005 124.730004,41.66 123.93,41.66 C123.129996,41.66 122.200005,41.6100005 121.14,41.51 C120.079995,41.4099995 119.140004,41.2100015 118.32,40.91 C117.499996,40.6099985 117.05,40.160003 116.97,39.56 C116.89,39.159998 116.979999,38.860001 117.24,38.66 C117.500001,38.459999 117.769999,38.2200014 118.05,37.94 C118.450002,37.5799982 118.749999,36.8600054 118.95,35.78 C119.150001,34.6999946 119.27,33.5000066 119.31,32.18 C119.35,30.8599934 119.37,29.6200058 119.37,28.46 C119.37,26.5399904 119.35,24.8300075 119.31,23.33 C119.27,21.8299925 118.930003,20.680004 118.29,19.88 C117.969998,19.479998 117.650002,19.1300015 117.33,18.83 C117.009998,18.5299985 116.89,18.1600022 116.97,17.72 C117.05,17.119997 117.399997,16.5700025 118.02,16.07 C118.640003,15.5699975 119.359996,15.120002 120.18,14.72 C121.000004,14.319998 121.749997,13.9400018 122.43,13.58 C122.910002,13.3399988 123.549996,13.0300019 124.35,12.65 C125.150004,12.2699981 125.949996,11.9700011 126.75,11.75 C127.550004,11.5299989 128.219997,11.4899993 128.76,11.63 C129.300003,11.7700007 129.53,12.2199962 129.45,12.98 C130.850007,12.0199952 132.369992,11.54 134.01,11.54 Z M130.77,29.54 C131.890006,29.0199974 132.739997,28.1800058 133.32,27.02 C133.900003,25.8599942 134.249999,24.5600072 134.37,23.12 C134.490001,21.6799928 134.430001,20.3000066 134.19,18.98 C133.949999,17.6599934 133.570003,16.5700043 133.05,15.71 C132.529997,14.8499957 131.910004,14.42 131.19,14.42 C130.589997,14.42 130.080002,14.7299969 129.66,15.35 C129.239998,15.9700031 129.01,16.579997 128.97,17.18 C128.809999,18.5000066 128.69,19.9799918 128.61,21.62 C128.53,23.2600082 128.49,25.07999 128.49,27.08 C128.49,28.2000056 128.789997,28.9299983 129.39,29.27 C129.990003,29.6100017 130.449998,29.7000008 130.77,29.54 Z" id="Gdrop" fill-rule="nonzero"></path>
                    <path d="M37.2312918,13.5082853 L36.9656426,10.1094518 C34.2908349,8.7516957 32.9691363,7.06593941 33.0005469,5.05218291 C33.0476627,2.03154816 35.5563709,0.0704083608 38.3667667,0.00151677666 C41.1771625,-0.0673748074 43.9931243,2.21874188 43.9866795,5.17912701 C43.9823829,7.15271709 41.730587,9.92910318 37.2312918,13.5082853 Z M37.903704,9.22447367 C39.3832992,8.06730159 41.41545,6.10710162 41.3711864,4.8375576 C41.3269229,3.56801357 40.0992173,2.50343521 38.361746,2.56934061 C36.6242747,2.63524602 35.7669343,3.75761463 35.7926236,4.91676985 C35.818313,6.07592508 36.6483247,7.11141431 37.7704863,7.57231903 C37.8385669,8.38406277 37.8628962,8.70660672 37.903704,9.22447367 Z" id="Combined-Shape-Copy-24"></path>
                </g>
            </g>
        </g>
    </g>
</svg>