<?xml version="1.0" encoding="UTF-8"?>
<svg width="43px" height="43px" viewBox="0 0 43 43" version="1.1" xmlns="http://www.w3.org/2000/svg" xmlns:xlink="http://www.w3.org/1999/xlink">
    <!-- Generator: Sketch 53.1 (72631) - https://sketchapp.com -->
    <title>twitter (2)</title>
    <desc>Created with Sketch.</desc>
    <g id="Page-1" stroke="none" stroke-width="1" fill="none" fill-rule="evenodd">
        <g id="Artboard-Copy-12" transform="translate(-492.000000, -2441.000000)" fill="#FFFFFF" fill-rule="nonzero">
            <g id="Footer" transform="translate(-5.000000, 2256.000000)">
                <g id="twitter-(2)" transform="translate(497.000000, 185.000000)">
                    <path d="M21.5,0 C9.6276932,0 0,9.6276932 0,21.5 C0,33.3723068 9.6276932,43 21.5,43 C33.3723068,43 43,33.3723068 43,21.5 C43,9.6276932 33.3723068,0 21.5,0 Z M31.316658,16.7634124 C31.3261719,16.9750138 31.3307648,17.1875992 31.3307648,17.4011688 C31.3307648,23.9220963 26.367157,31.4416504 17.2899552,31.4419784 L17.2902832,31.4419784 L17.2899552,31.4419784 C14.5030518,31.4419784 11.9097061,30.6250992 9.72578434,29.2252502 C10.1119156,29.2708512 10.5049362,29.2934875 10.9028778,29.2934875 C13.2150726,29.2934875 15.3428955,28.5048218 17.0320968,27.1810837 C14.8717957,27.1410599 13.0503845,25.7143097 12.421814,23.7534714 C12.7226486,23.8112106 13.0320129,23.8427048 13.3492508,23.8427048 C13.7996826,23.8427048 14.2360076,23.7820129 14.6506805,23.6688309 C12.3926163,23.2167587 10.6916047,21.2211457 10.6916047,18.8315277 C10.6916047,18.8092194 10.6916047,18.7892074 10.6922607,18.7685394 C11.3572464,19.1382675 12.1176986,19.3606949 12.9273605,19.3856278 C11.6023102,18.5014954 10.7313004,16.9901047 10.7313004,15.2779388 C10.7313004,14.3737946 10.975708,13.5267334 11.3995667,12.7974472 C13.8331452,15.7834854 17.4700623,17.7472763 21.5715179,17.9536286 C21.4868774,17.5921021 21.443245,17.2154846 21.443245,16.8283691 C21.443245,14.104126 23.6534119,11.8939591 26.3786392,11.8939591 C27.798172,11.8939591 29.0802459,12.493988 29.9807816,13.4532471 C31.1050568,13.2314758 32.1607666,12.8207397 33.1144486,12.2554855 C32.7453766,13.4073181 31.9632721,14.3737946 30.9443054,14.9849777 C31.9426041,14.8655624 32.8939896,14.6008148 33.7781219,14.2077942 C33.1177292,15.1975632 32.2801819,16.0669327 31.316658,16.7634124 Z" id="Shape"></path>
                </g>
            </g>
        </g>
    </g>
</svg>