<?xml version="1.0" encoding="UTF-8"?>
<svg width="43px" height="43px" viewBox="0 0 43 43" version="1.1" xmlns="http://www.w3.org/2000/svg" xmlns:xlink="http://www.w3.org/1999/xlink">
    <!-- Generator: Sketch 53.1 (72631) - https://sketchapp.com -->
    <title>youtube (1)</title>
    <desc>Created with Sketch.</desc>
    <g id="Page-1" stroke="none" stroke-width="1" fill="none" fill-rule="evenodd">
        <g id="Artboard-Copy-12" transform="translate(-550.000000, -2441.000000)" fill="#FFFFFF" fill-rule="nonzero">
            <g id="youtube-(1)" transform="translate(550.000000, 2441.000000)">
                <polygon id="Path" points="18.8220138 25.5279694 25.8156815 21.5 18.8220138 17.4720306"></polygon>
                <path d="M21.5,0 C9.6276932,0 0,9.6276932 0,21.5 C0,33.3723068 9.6276932,43 21.5,43 C33.3723068,43 43,33.3723068 43,21.5 C43,9.6276932 33.3723068,0 21.5,0 Z M34.9342194,21.5219803 C34.9342194,21.5219803 34.9342194,25.8822785 34.3811035,27.9848404 C34.0710831,29.1356888 33.1636581,30.0431137 32.0128097,30.3528061 C29.9102478,30.90625 21.5,30.90625 21.5,30.90625 C21.5,30.90625 13.1117325,30.90625 10.9871903,30.3308258 C9.83634188,30.0211335 8.92891691,29.1133805 8.61889648,27.9625321 C8.06545255,25.8822785 8.06545255,21.5 8.06545255,21.5 C8.06545255,21.5 8.06545255,17.1400299 8.61889648,15.0374679 C8.92858887,13.8866195 9.8583221,12.9568863 10.9871903,12.6471939 C13.0897522,12.09375 21.5,12.09375 21.5,12.09375 C21.5,12.09375 29.9102478,12.09375 32.0128097,12.6691742 C33.1636581,12.9788665 34.0710831,13.8866195 34.3811035,15.0374679 C34.9565277,17.1400299 34.9342194,21.5219803 34.9342194,21.5219803 L34.9342194,21.5219803 Z" id="Shape"></path>
            </g>
        </g>
    </g>
</svg>